<svg width="399" height="150" viewBox="0 0 399 150" fill="none" xmlns="http://www.w3.org/2000/svg">
<rect width="399" height="150" fill="#E5E5E5"/>
<path d="M169.664 49.28C169.664 52 168.704 54.352 166.784 56.336C164.864 58.288 162.064 59.696 158.384 60.56C160.368 61.104 161.872 62 162.896 63.248C163.92 64.464 164.432 65.872 164.432 67.472C164.432 70 163.632 72.192 162.032 74.048C160.464 75.904 158.16 77.344 155.12 78.368C152.08 79.36 148.416 79.856 144.128 79.856C142.528 79.856 141.248 79.808 140.288 79.712C140.256 80.608 139.872 81.28 139.136 81.728C138.4 82.176 137.456 82.4 136.304 82.4C135.152 82.4 134.352 82.144 133.904 81.632C133.488 81.12 133.312 80.368 133.376 79.376C133.664 74.896 134.224 70.208 135.056 65.312C135.888 60.384 136.944 55.632 138.224 51.056C138.448 50.256 138.896 49.696 139.568 49.376C140.24 49.056 141.12 48.896 142.208 48.896C144.16 48.896 145.136 49.44 145.136 50.528C145.136 50.976 145.04 51.488 144.848 52.064C144.016 54.56 143.184 57.952 142.352 62.24C141.52 66.496 140.928 70.56 140.576 74.432C142.112 74.56 143.36 74.624 144.32 74.624C148.8 74.624 152.08 73.984 154.16 72.704C156.272 71.392 157.328 69.728 157.328 67.712C157.328 66.304 156.72 65.12 155.504 64.16C154.32 63.2 152.32 62.672 149.504 62.576C148.864 62.544 148.416 62.384 148.16 62.096C147.904 61.808 147.776 61.344 147.776 60.704C147.776 59.776 147.968 59.024 148.352 58.448C148.736 57.872 149.44 57.568 150.464 57.536C152.736 57.472 154.784 57.136 156.608 56.528C158.464 55.92 159.92 55.072 160.976 53.984C162.032 52.864 162.56 51.568 162.56 50.096C162.56 48.24 161.648 46.784 159.824 45.728C158 44.64 155.2 44.096 151.424 44.096C148 44.096 144.688 44.544 141.488 45.44C138.288 46.304 135.568 47.408 133.328 48.752C132.304 49.36 131.44 49.664 130.736 49.664C130.16 49.664 129.712 49.472 129.392 49.088C129.104 48.672 128.96 48.16 128.96 47.552C128.96 46.752 129.12 46.064 129.44 45.488C129.792 44.912 130.608 44.256 131.888 43.52C134.576 41.984 137.728 40.784 141.344 39.92C144.96 39.056 148.656 38.624 152.432 38.624C158.224 38.624 162.544 39.6 165.392 41.552C168.24 43.504 169.664 46.08 169.664 49.28ZM173.989 80.24C172.005 80.24 170.421 79.52 169.237 78.08C168.053 76.64 167.461 74.752 167.461 72.416C167.461 69.856 168.053 67.44 169.237 65.168C170.421 62.864 171.989 61.024 173.941 59.648C175.925 58.24 178.021 57.536 180.229 57.536C180.933 57.536 181.397 57.68 181.621 57.968C181.877 58.224 182.085 58.704 182.245 59.408C182.917 59.28 183.621 59.216 184.357 59.216C185.925 59.216 186.709 59.776 186.709 60.896C186.709 61.568 186.469 63.168 185.989 65.696C185.253 69.376 184.885 71.936 184.885 73.376C184.885 73.856 184.997 74.24 185.221 74.528C185.477 74.816 185.797 74.96 186.181 74.96C186.789 74.96 187.525 74.576 188.389 73.808C189.253 73.008 190.421 71.728 191.893 69.968C192.277 69.52 192.709 69.296 193.189 69.296C193.605 69.296 193.925 69.488 194.149 69.872C194.405 70.256 194.533 70.784 194.533 71.456C194.533 72.736 194.229 73.728 193.621 74.432C192.309 76.064 190.917 77.44 189.445 78.56C187.973 79.68 186.549 80.24 185.173 80.24C184.117 80.24 183.141 79.888 182.245 79.184C181.381 78.448 180.725 77.456 180.277 76.208C178.613 78.896 176.517 80.24 173.989 80.24ZM175.717 75.392C176.421 75.392 177.093 74.976 177.733 74.144C178.373 73.312 178.837 72.208 179.125 70.832L180.901 62C179.557 62.032 178.309 62.544 177.157 63.536C176.037 64.496 175.141 65.776 174.469 67.376C173.797 68.976 173.461 70.672 173.461 72.464C173.461 73.456 173.653 74.192 174.037 74.672C174.453 75.152 175.013 75.392 175.717 75.392ZM218.376 69.296C218.792 69.296 219.112 69.488 219.336 69.872C219.592 70.256 219.72 70.784 219.72 71.456C219.72 72.736 219.416 73.728 218.808 74.432C217.368 76.192 215.912 77.6 214.44 78.656C212.968 79.712 211.224 80.24 209.208 80.24C206.744 80.24 204.76 79.536 203.256 78.128C201.752 76.72 201 74.848 201 72.512C201 71.264 201.64 70.368 202.92 69.824C204.328 69.216 205.336 68.576 205.944 67.904C206.552 67.2 206.856 66.352 206.856 65.36C206.856 64.784 206.728 64.352 206.472 64.064C206.248 63.776 205.96 63.632 205.608 63.632C204.744 63.632 203.784 64.256 202.728 65.504C201.704 66.752 200.744 68.368 199.848 70.352C198.952 72.304 198.248 74.32 197.736 76.4C197.384 77.904 196.968 78.928 196.488 79.472C196.04 79.984 195.32 80.24 194.328 80.24C193.336 80.24 192.6 79.888 192.12 79.184C191.672 78.448 191.368 77.328 191.208 75.824C191.048 74.32 190.968 72.112 190.968 69.2C190.968 64.272 191.464 59.136 192.456 53.792C193.48 48.448 194.968 43.968 196.92 40.352C198.904 36.704 201.272 34.88 204.024 34.88C205.496 34.88 206.68 35.52 207.576 36.8C208.504 38.048 208.968 39.68 208.968 41.696C208.968 44.928 208.024 48.288 206.136 51.776C204.248 55.232 201.176 59.28 196.92 63.92C196.824 65.584 196.776 67.296 196.776 69.056C198.312 65.056 200.072 62.16 202.056 60.368C204.04 58.544 205.896 57.632 207.624 57.632C209.224 57.632 210.504 58.176 211.464 59.264C212.456 60.352 212.952 61.696 212.952 63.296C212.952 65.056 212.504 66.672 211.608 68.144C210.712 69.616 209.176 70.928 207 72.08C207.128 72.944 207.512 73.648 208.152 74.192C208.824 74.704 209.624 74.96 210.552 74.96C211.544 74.96 212.504 74.576 213.432 73.808C214.36 73.04 215.576 71.76 217.08 69.968C217.464 69.52 217.896 69.296 218.376 69.296ZM203.016 39.632C202.44 39.632 201.8 40.464 201.096 42.128C200.392 43.76 199.704 45.984 199.032 48.8C198.392 51.584 197.864 54.624 197.448 57.92C199.432 55.584 201.064 53.04 202.344 50.288C203.656 47.536 204.312 45.04 204.312 42.8C204.312 41.776 204.2 40.992 203.976 40.448C203.752 39.904 203.432 39.632 203.016 39.632ZM233.035 70.736C233.451 70.736 233.771 70.928 233.995 71.312C234.251 71.696 234.379 72.224 234.379 72.896C234.379 74.048 234.107 75.04 233.563 75.872C232.667 77.248 231.483 78.32 230.011 79.088C228.571 79.856 226.843 80.24 224.827 80.24C221.755 80.24 219.371 79.328 217.675 77.504C215.979 75.648 215.131 73.152 215.131 70.016C215.131 67.808 215.595 65.76 216.523 63.872C217.451 61.952 218.731 60.432 220.363 59.312C222.027 58.192 223.899 57.632 225.979 57.632C227.835 57.632 229.323 58.192 230.443 59.312C231.563 60.4 232.123 61.888 232.123 63.776C232.123 65.984 231.323 67.888 229.723 69.488C228.155 71.056 225.467 72.304 221.659 73.232C222.427 74.704 223.723 75.44 225.547 75.44C226.859 75.44 227.931 75.136 228.763 74.528C229.627 73.92 230.619 72.896 231.739 71.456C232.123 70.976 232.555 70.736 233.035 70.736ZM225.163 62.336C223.979 62.336 222.971 63.024 222.139 64.4C221.339 65.776 220.939 67.44 220.939 69.392V69.488C222.827 69.04 224.315 68.368 225.403 67.472C226.491 66.576 227.035 65.536 227.035 64.352C227.035 63.744 226.859 63.264 226.507 62.912C226.187 62.528 225.739 62.336 225.163 62.336ZM292.736 69.296C293.152 69.296 293.472 69.488 293.696 69.872C293.952 70.256 294.08 70.784 294.08 71.456C294.08 72.704 293.776 73.696 293.168 74.432C290 78.304 286.624 80.24 283.04 80.24C279.936 80.24 277.456 79.04 275.6 76.64C273.744 74.24 272.816 70.8 272.816 66.32C272.816 65.232 272.864 64.144 272.96 63.056C270.848 63.44 268.544 63.728 266.048 63.92C264.384 64.048 263.248 64.128 262.64 64.16C262 67.424 261.104 71.424 259.952 76.16C259.28 78.944 258 80.336 256.112 80.336C254.064 80.336 253.04 79.408 253.04 77.552C253.04 77.136 253.12 76.56 253.28 75.824C254.368 71.44 255.232 67.728 255.872 64.688L253.568 64.784C252.512 64.784 251.744 64.608 251.264 64.256C250.784 63.872 250.544 63.264 250.544 62.432C250.544 61.376 250.848 60.608 251.456 60.128C252.064 59.616 253.072 59.328 254.48 59.264L257.024 59.168C257.856 54.656 258.272 51.216 258.272 48.848C258.272 47.344 258.048 46.32 257.6 45.776C257.152 45.232 256.56 44.96 255.824 44.96C253.584 44.96 251.056 46.832 248.24 50.576C247.824 51.12 247.36 51.392 246.848 51.392C246.4 51.392 246.016 51.184 245.696 50.768C245.376 50.352 245.216 49.824 245.216 49.184C245.216 48.192 245.616 47.136 246.416 46.016C247.824 44.064 249.6 42.464 251.744 41.216C253.888 39.936 256.064 39.296 258.272 39.296C260.352 39.296 261.952 40.016 263.072 41.456C264.224 42.864 264.8 45.072 264.8 48.08C264.8 50.736 264.416 54.336 263.648 58.88L268.352 58.64C270.368 58.544 272.096 58.384 273.536 58.16C274.112 54.64 274.992 51.344 276.176 48.272C277.36 45.2 278.832 42.704 280.592 40.784C282.352 38.864 284.32 37.904 286.496 37.904C288.096 37.904 289.36 38.544 290.288 39.824C291.216 41.072 291.68 42.72 291.68 44.768C291.68 52.704 287.632 58.208 279.536 61.28C279.44 62.56 279.392 63.888 279.392 65.264C279.392 68.624 279.808 71.008 280.64 72.416C281.472 73.824 282.64 74.528 284.144 74.528C285.456 74.528 286.656 74.192 287.744 73.52C288.832 72.816 290.064 71.632 291.44 69.968C291.824 69.52 292.256 69.296 292.736 69.296ZM286.256 42.08C285.552 42.08 284.8 42.72 284 44C283.232 45.28 282.496 47.024 281.792 49.232C281.088 51.44 280.528 53.856 280.112 56.48C282.672 55.424 284.56 53.92 285.776 51.968C286.992 50.016 287.6 47.504 287.6 44.432C287.6 43.696 287.472 43.12 287.216 42.704C286.96 42.288 286.64 42.08 286.256 42.08ZM317.837 69.296C318.253 69.296 318.573 69.488 318.797 69.872C319.053 70.256 319.181 70.784 319.181 71.456C319.181 72.736 318.877 73.728 318.269 74.432C317.085 75.872 315.405 77.2 313.229 78.416C311.085 79.632 308.781 80.24 306.317 80.24C302.957 80.24 300.349 79.328 298.493 77.504C296.637 75.68 295.709 73.184 295.709 70.016C295.709 67.808 296.173 65.76 297.101 63.872C298.029 61.952 299.309 60.432 300.941 59.312C302.605 58.192 304.477 57.632 306.557 57.632C308.413 57.632 309.901 58.192 311.021 59.312C312.141 60.4 312.701 61.888 312.701 63.776C312.701 65.984 311.901 67.888 310.301 69.488C308.733 71.056 306.061 72.304 302.285 73.232C303.085 74.704 304.605 75.44 306.845 75.44C308.285 75.44 309.917 74.944 311.741 73.952C313.597 72.928 315.197 71.6 316.541 69.968C316.925 69.52 317.357 69.296 317.837 69.296ZM305.741 62.336C304.557 62.336 303.549 63.024 302.717 64.4C301.917 65.776 301.517 67.44 301.517 69.392V69.488C303.405 69.04 304.893 68.368 305.981 67.472C307.069 66.576 307.613 65.536 307.613 64.352C307.613 63.744 307.437 63.264 307.085 62.912C306.765 62.528 306.317 62.336 305.741 62.336ZM320.942 80.24C318.958 80.24 317.374 79.52 316.19 78.08C315.006 76.64 314.414 74.752 314.414 72.416C314.414 69.856 315.006 67.44 316.19 65.168C317.374 62.864 318.942 61.024 320.894 59.648C322.878 58.24 324.974 57.536 327.182 57.536C327.886 57.536 328.35 57.68 328.574 57.968C328.83 58.224 329.038 58.704 329.198 59.408C329.87 59.28 330.574 59.216 331.31 59.216C332.878 59.216 333.662 59.776 333.662 60.896C333.662 61.568 333.422 63.168 332.942 65.696C332.206 69.376 331.838 71.936 331.838 73.376C331.838 73.856 331.95 74.24 332.174 74.528C332.43 74.816 332.75 74.96 333.134 74.96C333.742 74.96 334.478 74.576 335.342 73.808C336.206 73.008 337.374 71.728 338.846 69.968C339.23 69.52 339.662 69.296 340.142 69.296C340.558 69.296 340.878 69.488 341.102 69.872C341.358 70.256 341.486 70.784 341.486 71.456C341.486 72.736 341.182 73.728 340.574 74.432C339.262 76.064 337.87 77.44 336.398 78.56C334.926 79.68 333.502 80.24 332.126 80.24C331.07 80.24 330.094 79.888 329.198 79.184C328.334 78.448 327.678 77.456 327.23 76.208C325.566 78.896 323.47 80.24 320.942 80.24ZM322.67 75.392C323.374 75.392 324.046 74.976 324.686 74.144C325.326 73.312 325.79 72.208 326.078 70.832L327.854 62C326.51 62.032 325.262 62.544 324.11 63.536C322.99 64.496 322.094 65.776 321.422 67.376C320.75 68.976 320.414 70.672 320.414 72.464C320.414 73.456 320.606 74.192 320.99 74.672C321.406 75.152 321.966 75.392 322.67 75.392ZM361.814 65.408C361.91 65.376 362.07 65.36 362.294 65.36C362.774 65.36 363.142 65.52 363.398 65.84C363.654 66.16 363.782 66.592 363.782 67.136C363.782 68.128 363.59 68.912 363.206 69.488C362.822 70.032 362.246 70.432 361.478 70.688C360.006 71.168 358.438 71.408 356.774 71.408C355.366 71.408 354.038 71.216 352.79 70.832C351.862 72.336 350.838 73.888 349.718 75.488C348.438 77.312 347.334 78.56 346.406 79.232C345.478 79.904 344.422 80.24 343.238 80.24C341.926 80.24 340.886 79.728 340.118 78.704C339.382 77.68 338.918 76.064 338.726 73.856C338.342 69.376 338.15 65.456 338.15 62.096V60.416C338.182 59.36 338.47 58.624 339.014 58.208C339.558 57.792 340.374 57.584 341.462 57.584C342.294 57.584 342.902 57.776 343.286 58.16C343.702 58.512 343.91 59.12 343.91 59.984C343.91 63.664 344.134 68.448 344.582 74.336C346.502 71.488 347.942 69.216 348.902 67.52C348.422 66.592 348.182 65.488 348.182 64.208C348.182 63.12 348.422 62.064 348.902 61.04C349.382 60.016 350.038 59.184 350.87 58.544C351.702 57.904 352.646 57.584 353.702 57.584C354.63 57.584 355.382 57.92 355.958 58.592C356.534 59.232 356.822 60.176 356.822 61.424C356.822 62.864 356.438 64.512 355.67 66.368C356.886 66.304 358.502 66.064 360.518 65.648L361.814 65.408ZM381.025 69.296C381.441 69.296 381.761 69.488 381.984 69.872C382.241 70.256 382.369 70.784 382.369 71.456C382.369 72.736 382.065 73.728 381.457 74.432C380.273 75.872 378.593 77.2 376.417 78.416C374.273 79.632 371.969 80.24 369.505 80.24C366.145 80.24 363.537 79.328 361.681 77.504C359.825 75.68 358.896 73.184 358.896 70.016C358.896 67.808 359.361 65.76 360.289 63.872C361.217 61.952 362.497 60.432 364.129 59.312C365.793 58.192 367.665 57.632 369.745 57.632C371.601 57.632 373.089 58.192 374.209 59.312C375.329 60.4 375.889 61.888 375.889 63.776C375.889 65.984 375.089 67.888 373.489 69.488C371.921 71.056 369.249 72.304 365.473 73.232C366.273 74.704 367.793 75.44 370.033 75.44C371.473 75.44 373.105 74.944 374.929 73.952C376.785 72.928 378.385 71.6 379.729 69.968C380.113 69.52 380.545 69.296 381.025 69.296ZM368.929 62.336C367.745 62.336 366.737 63.024 365.905 64.4C365.105 65.776 364.705 67.44 364.705 69.392V69.488C366.593 69.04 368.081 68.368 369.169 67.472C370.257 66.576 370.801 65.536 370.801 64.352C370.801 63.744 370.625 63.264 370.273 62.912C369.953 62.528 369.505 62.336 368.929 62.336ZM381.868 80.24C380.652 80.24 379.788 79.6 379.276 78.32C378.796 77.04 378.556 74.992 378.556 72.176C378.556 68.016 379.148 64.064 380.332 60.32C380.62 59.392 381.084 58.72 381.724 58.304C382.396 57.856 383.324 57.632 384.508 57.632C385.148 57.632 385.596 57.712 385.852 57.872C386.108 58.032 386.236 58.336 386.236 58.784C386.236 59.296 385.996 60.448 385.516 62.24C385.196 63.52 384.94 64.64 384.748 65.6C384.556 66.56 384.396 67.744 384.268 69.152C385.324 66.4 386.508 64.16 387.82 62.432C389.132 60.704 390.412 59.472 391.66 58.736C392.94 58 394.108 57.632 395.164 57.632C396.188 57.632 396.956 57.904 397.468 58.448C398.012 58.96 398.284 59.728 398.284 60.752C398.284 61.584 398.108 63.152 397.756 65.456C397.436 67.408 397.18 69.264 396.988 71.024C396.796 72.752 396.7 74.688 396.7 76.832C396.7 78.048 396.444 78.928 395.932 79.472C395.452 79.984 394.652 80.24 393.532 80.24C392.476 80.24 391.708 79.968 391.228 79.424C390.748 78.88 390.508 78.064 390.508 76.976C390.508 75.696 390.732 73.584 391.18 70.64C391.564 68.08 391.756 66.448 391.756 65.744C391.756 65.232 391.58 64.976 391.228 64.976C390.812 64.976 390.22 65.52 389.452 66.608C388.716 67.664 387.948 69.072 387.148 70.832C386.38 72.592 385.756 74.448 385.276 76.4C384.924 77.904 384.508 78.928 384.028 79.472C383.58 79.984 382.86 80.24 381.868 80.24Z" fill="#991657"/>
<path d="M144.572 78.291C144.353 81.277 143.872 85.663 142.389 91.069C140.891 96.45 138.371 102.84 134.081 109.418C129.801 115.997 123.714 122.713 115.647 128.225C107.627 133.737 97.594 137.987 86.428 139.551C75.267 141.146 63.005 140.048 51.56 135.585C45.835 133.387 40.311 130.364 35.285 126.595C30.242 122.824 25.672 118.309 21.814 113.241C17.961 108.137 14.826 102.46 12.585 96.427C10.356 90.393 9.011 84.016 8.626 77.598C8.26 71.14 8.817 64.656 10.34 58.389C11.863 52.136 14.305 46.117 17.565 40.594C20.818 35.076 24.86 30.059 29.483 25.744C34.118 21.42 39.316 17.761 44.822 14.91C50.322 12.083 56.155 10.012 62.022 8.77899C67.907 7.51999 73.852 7.08099 79.601 7.32399C91.135 7.80399 101.815 11.177 110.563 16.143C119.364 21.107 126.252 27.594 131.231 34.161C136.231 40.74 139.362 47.381 141.271 53.139C142.935 58.135 143.695 62.426 144.109 65.795C143.51 60.491 142.312 55.252 140.398 50.232C137.578 42.72 133.31 35.708 127.939 29.645C122.546 23.603 116.051 18.491 108.808 14.65C101.595 10.821 93.642 8.30199 85.468 7.21399C77.301 6.13199 68.908 6.48499 60.86 8.26899C52.823 10.056 45.083 13.307 38.19 17.775C31.297 22.229 25.205 27.922 20.351 34.518C15.478 41.068 11.822 48.503 9.652 56.332C7.478 64.158 6.778 72.423 7.555 80.52C8.326 88.627 10.613 96.593 14.294 103.914C17.963 111.239 23.012 117.931 29.111 123.525C35.204 129.143 42.327 133.683 50.062 136.819C65.52 143.184 83.431 143.806 99.361 138.497C107.356 135.877 114.841 131.816 121.367 126.596C127.911 121.367 133.476 114.991 137.732 107.855C143.142 97.139 145.514 85.251 144.73 73.705C144.721 73.703 144.768 75.31 144.572 78.291Z" fill="#3F454A"/>
<path d="M144.298 67.314C144.252 66.852 144.175 66.304 144.11 65.793C144.24 66.919 144.376 68.045 144.447 69.175C144.406 68.591 144.363 68.001 144.298 67.314Z" fill="#3F454A"/>
<path d="M144.446 69.175C144.542 70.683 144.637 72.195 144.625 73.703C144.606 73.188 144.613 71.605 144.446 69.175Z" fill="#3F454A"/>
<path d="M127.764 25.791C128.598 26.65 129.441 27.506 130.229 28.411C129.938 28.105 129.119 27.163 127.764 25.791Z" fill="#3F454A"/>
<path d="M119.768 18.803C120.503 19.351 121.161 19.879 121.813 20.404C121.136 19.852 120.456 19.327 119.768 18.803Z" fill="#3F454A"/>
<path d="M126.482 24.522C125.255 23.339 123.686 21.923 121.812 20.403C123.88 22.104 125.901 23.87 127.763 25.791C127.377 25.396 126.963 24.982 126.482 24.522Z" fill="#3F454A"/>
<path d="M116.964 16.803C116.651 16.587 116.276 16.367 115.944 16.151C117.237 17.01 118.535 17.863 119.767 18.803C118.891 18.145 117.966 17.478 116.964 16.803Z" fill="#3F454A"/>
<path d="M128.279 121.225C125.011 124.616 120.681 128.42 115.102 131.953C109.538 135.485 102.692 138.71 94.768 140.748C86.855 142.788 77.865 143.611 68.506 142.562C59.171 141.554 49.534 138.59 40.673 133.489C31.819 128.409 23.817 121.225 17.76 112.442C11.709 103.723 7.67799 93.44 6.26799 82.766C4.83999 72.115 5.97799 61.118 9.54599 51.08C13.085 41.04 19.023 31.993 26.373 24.819C33.705 17.609 42.44 12.275 51.408 8.944C60.381 5.622 69.55 4.295 78.007 4.469C86.47 4.638 94.188 6.274 100.742 8.586C106.818 10.758 111.867 13.466 115.944 16.151C109.928 12.153 103.362 8.938 96.368 6.929C83.265 3.142 68.98 3.142 55.853 6.964C42.689 10.751 30.717 18.418 21.803 28.648C17.334 33.778 13.618 39.506 10.826 45.667C8.02299 51.822 6.15599 58.377 5.27199 65.068C4.37699 71.756 4.50199 78.575 5.58099 85.249C6.65399 91.91 8.73399 98.424 11.739 104.535C17.731 116.732 27.427 127.211 39.299 134.269C45.237 137.795 51.698 140.523 58.431 142.241C65.146 143.983 72.14 144.754 79.121 144.553C86.074 144.364 93.038 143.184 99.663 141.044C106.296 138.922 112.62 135.834 118.362 131.952C126.275 125.824 132.754 118.119 137.346 109.596C137.327 109.596 136.654 110.758 135.212 112.797C133.779 114.872 131.544 117.835 128.279 121.225Z" fill="#3F454A"/>
<path d="M35.239 85.13V87.691C39.945 95.016 44.07 105.009 47.994 114.161C48.924 116.337 49.571 119.068 50.549 120.532C54.579 126.595 69.425 129.914 80.521 129.143C89.405 128.539 103.434 124.331 106.67 117.984C107.891 115.595 108.465 112.087 109.533 109.051C111.398 103.776 113.675 97.636 115.909 92.149C117.533 88.171 119.626 85.557 119.732 80.982C119.885 74.83 116.294 71.413 112.732 68.245C110.563 62.211 106.794 57.802 101.241 55.167C99.676 47.251 93.998 42.729 86.897 40.813C80.852 39.162 72.429 40.401 70.32 34.423C71.541 42.665 83.412 40.25 89.132 43.992C85.729 43.344 81.053 43.66 78.601 44.964C89.506 43.731 99.262 47.154 99.332 57.072C99.403 66.558 92.249 72.47 84.989 74.296C67.973 78.575 40.905 68.396 35.239 85.13ZM48.622 110.331C47.241 105.928 46.583 102.348 45.445 99.8C46.388 99.189 47.828 100.819 48.954 101.092C50.678 107.616 53.055 113.579 54.697 120.218C50.803 120.182 50.038 114.771 48.622 110.331ZM55.633 120.531C53.974 114.883 53.303 108.215 51.496 102.679C52.954 102.188 55.259 103.585 56.919 103.942C57.986 110.319 60.119 115.641 61.074 122.126C59.415 121.45 57.21 121.313 55.633 120.531ZM61.696 122.126C61.009 116.228 60.196 110.443 59.486 104.588C61.543 104.642 63.321 104.974 64.885 105.542C65.531 111.7 67.013 117.034 67.766 123.068C65.573 122.932 63.581 122.588 61.696 122.126ZM68.399 123.068C68.316 117.01 67.741 111.416 67.439 105.542C69.549 105.341 70.717 106.105 72.868 105.874C73.253 111.872 73.953 117.526 74.457 123.382C72.359 123.371 70.06 123.548 68.399 123.068ZM81.154 123.068C79.708 123.761 77.052 123.239 75.102 123.381C75.482 117.738 75.156 111.35 75.73 105.873C77.407 105.927 78.912 105.861 80.205 105.541C81.729 110.194 80.93 117.136 81.154 123.068ZM81.782 123.068C82.428 117.135 83.222 111.326 83.703 105.233C85.771 105.281 86.992 104.462 89.132 104.587C88.681 110.52 88.035 116.239 87.852 122.456C85.866 122.694 84.153 123.217 81.782 123.068ZM88.486 122.126C89.541 115.843 90.885 109.869 92.001 103.628C94.146 103.539 95.397 102.566 97.411 102.348C96.202 108.494 95.354 114.954 94.234 121.177C92.22 121.379 90.821 122.221 88.486 122.126ZM95.188 120.845C96.41 114.006 98.59 108.103 99.977 101.406C101.352 100.547 103.119 100.085 104.434 99.153C105.282 103.444 101.441 112.993 100.938 118.938C99.076 119.648 97.168 120.271 95.188 120.845ZM105.71 117.022C104.228 117.348 103.048 117.983 101.887 118.61C103.078 111.729 106.427 104.226 108.258 96.936C109.259 96.652 110.03 96.142 110.481 95.341C110.866 95.288 111.056 95.407 111.121 95.644C109.247 102.709 107.493 109.893 105.71 117.022ZM113.675 73.022C113.592 72.512 113.978 72.47 114.007 72.073C123.425 79.41 114.238 94.257 104.435 95.015C105.355 92.159 107.743 89.966 109.534 87.05C111.813 83.334 114.155 79.85 113.675 73.022ZM101.241 58.978C119.833 63.983 110.759 99.035 90.72 95.977C91.586 93.766 94.3 92.984 96.149 91.84C101.72 88.331 109.083 82.725 109.534 73.982C109.846 67.688 106.374 62.431 101.242 59.95V58.978H101.241ZM101.241 61.23C101.512 61.174 101.537 61.352 101.56 61.539C106.544 64.076 108.464 73.182 105.394 79.08C99.036 91.295 77.301 99.113 59.787 96.618C73.454 93.014 91.543 91.04 99.977 81.634C102.129 79.204 104.121 75.375 103.8 70.139C102.117 88.557 80.163 90.75 60.433 92.795C54.879 93.369 48.763 94.727 44.798 91.515C45.865 87.211 50.832 86.69 55.318 86.406C71.279 85.416 90.737 87.135 98.371 77.487C101.964 73.307 98.307 65.643 101.241 61.23ZM48.954 78.753C56.801 76.999 69.288 79.066 78.6 78.433C87.643 77.834 95.342 74.308 98.371 68.245C98.525 81.675 82.754 81.752 68.398 82.903C56.657 83.828 44.098 81.753 40.661 90.572C34.925 85.207 43.068 80.081 48.954 78.753Z" fill="#991657"/>
<path d="M39.696 77.805C44.828 72.424 56.919 73.514 67.119 72.074C74.391 71.018 81.984 69.137 86.897 65.998C89.214 64.531 92.652 61.435 93.588 58.347C95.058 53.564 92.533 48.915 89.45 48.132C95.289 50.737 93.297 58.705 90.399 61.856C85.278 67.439 75.078 69.496 65.204 70.139C55.521 70.781 40.082 69.581 39.696 77.805Z" fill="#991657"/>
<path d="M60.102 45.267C63.244 46.979 68.329 46.173 69.046 42.712C68.702 42.493 67.564 41.479 67.12 42.398C68.192 44.582 61.732 44.528 60.102 45.267Z" fill="#991657"/>
<path d="M44.153 68.245C55.272 66.947 78.837 65.29 85.617 58.662C88.789 55.568 88.403 48.583 84.028 48.461C86.469 49.694 88.319 52.121 87.211 55.168C83.768 64.562 57.334 63.67 47.051 65.042C48.118 58.911 52.901 56.472 57.885 54.208C59.237 56.211 60.155 58.075 62.022 58.979C72.661 64.26 81.414 50.204 73.182 42.398C72.139 41.524 70.301 41.468 69.667 40.176C68.985 37.864 69.133 39.903 69.667 41.124C69.151 41.166 66.792 40.946 67.765 41.438C69.111 41.251 69.863 41.675 70.953 41.772C77.484 46.555 75.688 56.895 68.398 58.018C59.798 59.36 54.079 48.623 60.433 43.992C57.481 45.127 55.905 48.642 57.233 52.29C50.75 55.276 43.109 58.782 44.153 68.245Z" fill="#991657"/>
<path d="M50.548 24.232C50.98 24.949 52.77 24.354 53.736 24.561C54.246 23.287 52.355 24.451 52.45 23.589C54.234 22.75 54.904 25.112 55.633 25.823C59.059 29.086 60.582 30.92 62.022 36.983C62.211 37.81 62.045 39.7 62.348 38.246C63.178 34.156 61.251 30.028 59.485 27.741C57.494 25.204 52.628 19.57 50.548 24.232Z" fill="#991657"/>
<path d="M177.026 99.596H178.106V89.804H177.026V88.4H182.12C182.72 88.4 183.248 88.484 183.704 88.652C184.172 88.82 184.562 89.048 184.874 89.336C185.198 89.624 185.438 89.972 185.594 90.38C185.762 90.776 185.846 91.208 185.846 91.676V91.892C185.846 92.24 185.792 92.558 185.684 92.846C185.576 93.134 185.426 93.392 185.234 93.62C185.042 93.848 184.814 94.046 184.55 94.214C184.298 94.37 184.022 94.49 183.722 94.574V94.79C184.322 94.958 184.826 95.282 185.234 95.762C185.642 96.23 185.846 96.806 185.846 97.49V97.706C185.846 98.174 185.762 98.612 185.594 99.02C185.438 99.416 185.198 99.764 184.874 100.064C184.562 100.352 184.172 100.58 183.704 100.748C183.248 100.916 182.72 101 182.12 101H177.026V99.596ZM179.618 99.596H182.012C182.72 99.596 183.296 99.422 183.74 99.074C184.184 98.714 184.406 98.222 184.406 97.598V97.49C184.406 96.842 184.196 96.332 183.776 95.96C183.356 95.576 182.786 95.384 182.066 95.384H179.618V99.596ZM179.618 93.98H182.066C182.786 93.98 183.356 93.794 183.776 93.422C184.196 93.05 184.406 92.54 184.406 91.892V91.784C184.406 91.172 184.184 90.692 183.74 90.344C183.296 89.984 182.72 89.804 182.012 89.804H179.618V93.98ZM195.067 99.488H194.851C194.563 100.088 194.161 100.532 193.645 100.82C193.141 101.108 192.607 101.252 192.043 101.252C191.455 101.252 190.909 101.156 190.405 100.964C189.901 100.76 189.457 100.466 189.073 100.082C188.701 99.686 188.407 99.206 188.191 98.642C187.975 98.078 187.867 97.424 187.867 96.68V96.392C187.867 95.66 187.975 95.012 188.191 94.448C188.407 93.884 188.701 93.41 189.073 93.026C189.457 92.63 189.901 92.33 190.405 92.126C190.909 91.922 191.443 91.82 192.007 91.82C192.619 91.82 193.171 91.958 193.663 92.234C194.167 92.498 194.563 92.912 194.851 93.476H195.067V92.072H196.471V99.164C196.471 99.524 196.633 99.704 196.957 99.704H197.407V101H196.453C196.045 101 195.709 100.868 195.445 100.604C195.193 100.34 195.067 100.004 195.067 99.596V99.488ZM192.187 99.92C192.607 99.92 192.991 99.842 193.339 99.686C193.699 99.53 194.005 99.308 194.257 99.02C194.509 98.732 194.707 98.39 194.851 97.994C194.995 97.586 195.067 97.136 195.067 96.644V96.428C195.067 95.948 194.995 95.51 194.851 95.114C194.707 94.706 194.503 94.358 194.239 94.07C193.987 93.782 193.681 93.56 193.321 93.404C192.973 93.236 192.595 93.152 192.187 93.152C191.767 93.152 191.383 93.23 191.035 93.386C190.687 93.542 190.381 93.764 190.117 94.052C189.865 94.328 189.667 94.67 189.523 95.078C189.379 95.474 189.307 95.912 189.307 96.392V96.68C189.307 97.7 189.571 98.498 190.099 99.074C190.639 99.638 191.335 99.92 192.187 99.92ZM201.913 95.78H202.219L205.621 92.072H207.349V92.18L203.641 96.266V96.59L207.781 100.892V101H206.053L202.255 97.076H201.913V101H200.509V88.4H201.913V95.78ZM211.656 96.968C211.692 97.856 211.968 98.57 212.484 99.11C213 99.65 213.72 99.92 214.644 99.92C215.064 99.92 215.43 99.872 215.742 99.776C216.054 99.68 216.318 99.548 216.534 99.38C216.762 99.212 216.942 99.02 217.074 98.804C217.218 98.576 217.332 98.336 217.416 98.084L218.748 98.444C218.496 99.272 218.028 99.95 217.344 100.478C216.672 100.994 215.76 101.252 214.608 101.252C213.972 101.252 213.384 101.144 212.844 100.928C212.316 100.7 211.86 100.382 211.476 99.974C211.092 99.566 210.792 99.08 210.576 98.516C210.36 97.952 210.252 97.328 210.252 96.644V96.212C210.252 95.588 210.36 95.006 210.576 94.466C210.804 93.926 211.116 93.464 211.512 93.08C211.908 92.684 212.37 92.378 212.898 92.162C213.438 91.934 214.02 91.82 214.644 91.82C215.376 91.82 216.006 91.958 216.534 92.234C217.074 92.498 217.512 92.828 217.848 93.224C218.196 93.62 218.448 94.052 218.604 94.52C218.772 94.988 218.856 95.42 218.856 95.816V96.968H211.656ZM214.644 93.152C214.248 93.152 213.876 93.218 213.528 93.35C213.192 93.47 212.892 93.644 212.628 93.872C212.376 94.1 212.166 94.37 211.998 94.682C211.842 94.982 211.74 95.312 211.692 95.672H217.452C217.428 95.288 217.332 94.94 217.164 94.628C217.008 94.316 216.798 94.052 216.534 93.836C216.282 93.62 215.988 93.452 215.652 93.332C215.328 93.212 214.992 93.152 214.644 93.152ZM228.564 99.632H228.348C228.204 99.908 228.018 100.148 227.79 100.352C227.574 100.556 227.334 100.724 227.07 100.856C226.818 100.988 226.548 101.084 226.26 101.144C225.972 101.216 225.696 101.252 225.432 101.252C224.832 101.252 224.274 101.15 223.758 100.946C223.242 100.742 222.786 100.448 222.39 100.064C222.006 99.68 221.7 99.206 221.472 98.642C221.256 98.066 221.148 97.412 221.148 96.68V96.392C221.148 95.672 221.262 95.03 221.49 94.466C221.718 93.89 222.024 93.41 222.408 93.026C222.792 92.63 223.242 92.33 223.758 92.126C224.274 91.922 224.82 91.82 225.396 91.82C226.008 91.82 226.578 91.958 227.106 92.234C227.646 92.498 228.06 92.912 228.348 93.476H228.564V88.4H229.968V101H228.564V99.632ZM225.576 99.92C225.996 99.92 226.386 99.842 226.746 99.686C227.106 99.53 227.418 99.308 227.682 99.02C227.958 98.732 228.174 98.39 228.33 97.994C228.486 97.586 228.564 97.136 228.564 96.644V96.428C228.564 95.948 228.486 95.51 228.33 95.114C228.174 94.706 227.958 94.358 227.682 94.07C227.418 93.782 227.1 93.56 226.728 93.404C226.368 93.236 225.984 93.152 225.576 93.152C225.156 93.152 224.76 93.23 224.388 93.386C224.028 93.542 223.71 93.764 223.434 94.052C223.17 94.34 222.96 94.682 222.804 95.078C222.66 95.474 222.588 95.912 222.588 96.392V96.68C222.588 97.184 222.66 97.634 222.804 98.03C222.96 98.426 223.17 98.768 223.434 99.056C223.71 99.332 224.028 99.548 224.388 99.704C224.748 99.848 225.144 99.92 225.576 99.92ZM251.417 101H248.825L247.745 92.72H247.529L246.449 101H243.857L242.453 92.072H243.893L245.081 100.352H245.297L246.341 92.072H248.933L249.977 100.352H250.193L251.381 92.072H252.821L251.417 101ZM257.488 89.408C257.488 89.06 257.608 88.766 257.848 88.526C258.1 88.274 258.4 88.148 258.748 88.148C259.096 88.148 259.39 88.274 259.63 88.526C259.882 88.766 260.008 89.06 260.008 89.408C260.008 89.756 259.882 90.056 259.63 90.308C259.39 90.548 259.096 90.668 258.748 90.668C258.4 90.668 258.1 90.548 257.848 90.308C257.608 90.056 257.488 89.756 257.488 89.408ZM254.932 99.704H258.064V93.368H255.256V92.072H259.468V99.704H262.384V101H254.932V99.704ZM265.432 92.072H268.24V88.4H269.644V92.072H273.1V93.368H269.644V99.164C269.644 99.524 269.806 99.704 270.13 99.704H272.668V101H269.626C269.218 101 268.882 100.868 268.618 100.604C268.366 100.34 268.24 100.004 268.24 99.596V93.368H265.432V92.072ZM278.163 101H276.759V88.4H278.163V93.692H278.379C278.655 93.116 279.039 92.66 279.531 92.324C280.035 91.988 280.647 91.82 281.367 91.82C282.339 91.82 283.125 92.144 283.725 92.792C284.337 93.428 284.643 94.388 284.643 95.672V101H283.239V95.96C283.239 95.024 283.029 94.322 282.609 93.854C282.189 93.386 281.619 93.152 280.899 93.152C280.047 93.152 279.375 93.446 278.883 94.034C278.403 94.61 278.163 95.384 278.163 96.356V101ZM298.802 88.4H300.314V99.596H306.902V101H298.802V88.4ZM318.248 96.644C318.248 97.388 318.122 98.048 317.87 98.624C317.63 99.188 317.306 99.668 316.898 100.064C316.49 100.448 316.01 100.742 315.458 100.946C314.918 101.15 314.354 101.252 313.766 101.252C313.166 101.252 312.596 101.15 312.056 100.946C311.516 100.742 311.042 100.448 310.634 100.064C310.226 99.668 309.896 99.188 309.644 98.624C309.404 98.048 309.284 97.388 309.284 96.644V96.428C309.284 95.696 309.404 95.048 309.644 94.484C309.896 93.908 310.226 93.422 310.634 93.026C311.054 92.63 311.534 92.33 312.074 92.126C312.614 91.922 313.178 91.82 313.766 91.82C314.354 91.82 314.918 91.922 315.458 92.126C315.998 92.33 316.472 92.63 316.88 93.026C317.3 93.422 317.63 93.908 317.87 94.484C318.122 95.048 318.248 95.696 318.248 96.428V96.644ZM313.766 99.92C314.198 99.92 314.594 99.848 314.954 99.704C315.326 99.548 315.65 99.326 315.926 99.038C316.202 98.75 316.418 98.408 316.574 98.012C316.73 97.604 316.808 97.148 316.808 96.644V96.428C316.808 95.948 316.73 95.51 316.574 95.114C316.418 94.706 316.202 94.358 315.926 94.07C315.65 93.782 315.326 93.56 314.954 93.404C314.582 93.236 314.186 93.152 313.766 93.152C313.346 93.152 312.95 93.236 312.578 93.404C312.206 93.56 311.882 93.782 311.606 94.07C311.33 94.358 311.114 94.706 310.958 95.114C310.802 95.51 310.724 95.948 310.724 96.428V96.644C310.724 97.148 310.802 97.604 310.958 98.012C311.114 98.408 311.33 98.75 311.606 99.038C311.882 99.326 312.2 99.548 312.56 99.704C312.932 99.848 313.334 99.92 313.766 99.92ZM326.155 101H323.383L320.269 92.072H321.925L324.661 100.352H324.877L327.613 92.072H329.269L326.155 101ZM332.893 96.968C332.929 97.856 333.205 98.57 333.721 99.11C334.237 99.65 334.957 99.92 335.881 99.92C336.301 99.92 336.667 99.872 336.979 99.776C337.291 99.68 337.555 99.548 337.771 99.38C337.999 99.212 338.179 99.02 338.311 98.804C338.455 98.576 338.569 98.336 338.653 98.084L339.985 98.444C339.733 99.272 339.265 99.95 338.581 100.478C337.909 100.994 336.997 101.252 335.845 101.252C335.209 101.252 334.621 101.144 334.081 100.928C333.553 100.7 333.097 100.382 332.713 99.974C332.329 99.566 332.029 99.08 331.813 98.516C331.597 97.952 331.489 97.328 331.489 96.644V96.212C331.489 95.588 331.597 95.006 331.813 94.466C332.041 93.926 332.353 93.464 332.749 93.08C333.145 92.684 333.607 92.378 334.135 92.162C334.675 91.934 335.257 91.82 335.881 91.82C336.613 91.82 337.243 91.958 337.771 92.234C338.311 92.498 338.749 92.828 339.085 93.224C339.433 93.62 339.685 94.052 339.841 94.52C340.009 94.988 340.093 95.42 340.093 95.816V96.968H332.893ZM335.881 93.152C335.485 93.152 335.113 93.218 334.765 93.35C334.429 93.47 334.129 93.644 333.865 93.872C333.613 94.1 333.403 94.37 333.235 94.682C333.079 94.982 332.977 95.312 332.929 95.672H338.689C338.665 95.288 338.569 94.94 338.401 94.628C338.245 94.316 338.035 94.052 337.771 93.836C337.519 93.62 337.225 93.452 336.889 93.332C336.565 93.212 336.229 93.152 335.881 93.152Z" fill="#991657"/>
</svg>
